<?xml version="1.0" encoding="UTF-8"?>
<svg width="80" height="80" viewBox="0 0 80 80" xmlns="http://www.w3.org/2000/svg" role="img" aria-label="Avatar: Devi Kandel">
  <title>Avatar illustration of Devi Kandel</title>
  <defs>
    <radialGradient id="bg" cx="50%" cy="45%" r="60%">
      <stop offset="0%" stop-color="#FFE8C7"/>
      <stop offset="100%" stop-color="#C26A33"/>
    </radialGradient>
    <linearGradient id="sari" x1="0%" y1="0%" x2="100%" y2="100%">
      <stop offset="0%" stop-color="#F5BA39"/>
      <stop offset="100%" stop-color="#B44D1F"/>
    </linearGradient>
    <linearGradient id="tilhari" x1="0%" y1="0%" x2="0%" y2="100%">
      <stop offset="0%" stop-color="#FFD700"/>
      <stop offset="100%" stop-color="#C29117"/>
    </linearGradient>
  </defs>
  <circle cx="40" cy="40" r="38" fill="url(#bg)" stroke="#FFFFFF" stroke-width="2"/>
  <g transform="translate(16 12)">
    <path d="M24 12c-8 0-14 6.5-14 15.5S17 44 24 44s14-6.5 14-16.5S32 12 24 12z" fill="#3A2926"/>
    <path d="M24 14.5c-5.8 0-10.5 5.7-10.5 14.3 0 9.4 4.7 17 10.5 17s10.5-7.6 10.5-17C34.5 20.2 29.8 14.5 24 14.5z" fill="#F7D4BA"/>
    <path d="M12.8 30c0 7.6 5 13.3 11.2 13.3S35.2 37.6 35.2 30c0-1.2-.1-2.4-.3-3.5-1.8 3.5-6 5.7-10.9 5.7s-9.1-2.2-10.9-5.7c-.2 1.1-.3 2.3-.3 3.5z" fill="#F1C2A1"/>
    <path d="M14 25c1.6-2.4 5.3-3.1 10-3.1s8.4.7 10 3.1c.5-1.6.7-3.3.7-5.2 0-7.4-4.8-12.7-10.7-12.7S13.3 12.4 13.3 19.8c0 1.9.3 3.6.7 5.2z" fill="#3A2926"/>
    <path d="M18.3 25.5c.3.8 1.1 1.3 1.9 1.1 1.2-.3 3.2-.7 4.8-.7s3.6.4 4.8.7c.8.2 1.7-.3 1.9-1.1.2-.8-.3-1.6-1.1-1.8-1.3-.4-3.5-.8-5.6-.8s-4.3.4-5.6.8c-.8.2-1.3 1-1.1 1.8z" fill="#F7D4BA"/>
    <circle cx="18.5" cy="28.5" r="1.4" fill="#211312"/>
    <circle cx="29.5" cy="28.5" r="1.4" fill="#211312"/>
    <path d="M23.8 30.8c.2.5.7.9 1.2.9s1-.4 1.2-.9" stroke="#211312" stroke-width="1.2" stroke-linecap="round" fill="none"/>
    <path d="M24 34.5c-1.7 0-3 .9-3 2s1.3 2 3 2 3-.9 3-2-1.3-2-3-2z" fill="#D7725D"/>
    <path d="M24 45c-4.5 0-8.5 2.1-11.4 5.5l-2.6 3 5 .5c2.6.3 5.2.5 7.8.5s5.2-.2 7.8-.5l5-.5-2.6-3C32.5 47.1 28.5 45 24 45z" fill="url(#sari)"/>
    <path d="M19.6 44.8c-1.4 1.8-2.2 4.2-2.2 6.7 0 1 .8 1.8 1.8 1.8h8.8c1 0 1.8-.8 1.8-1.8 0-2.5-.8-4.9-2.2-6.7-1.6.7-3.3 1-5 1s-3.4-.3-5-1z" fill="#B63E1C"/>
    <path d="M24 41c-3.8 0-6.8 2.2-7.3 5.2 2.1 1.1 4.7 1.8 7.3 1.8s5.2-.7 7.3-1.8c-.5-3-3.5-5.2-7.3-5.2z" fill="#F7D4BA"/>
    <path d="M24 47.8c-1.6 0-3.2-.3-4.7-.8l-.5 3.2c1.6.5 3.4.8 5.2.8s3.6-.3 5.2-.8l-.5-3.2c-1.5.5-3.1.8-4.7.8z" fill="#FDF0D8"/>
    <path d="M24 52.6c-2.2 0-4.8-.3-6.8-.7l-.8-.2 1.6-2c1.7-2.1 3.5-3.1 6-3.1s4.3 1 6 3.1l1.6 2-.8.2c-2 .4-4.6.7-6.8.7z" fill="#8C2E1B"/>
    <circle cx="24" cy="39.2" r="1.5" fill="#FFD700" stroke="#BB8610" stroke-width="0.6"/>
    <path d="M24 39.9v5.4" stroke="url(#tilhari)" stroke-width="1.2" stroke-linecap="round"/>
    <path d="M16.2 42.5c-.8 1.9.6 4.1 3.1 5l.8.3-.1-.8c-.2-2.1.6-4.1 2.1-5.3-2.4-.5-4.5-.1-5.9.8z" fill="#FFD1C5"/>
    <path d="M31.8 42.5c.8 1.9-.6 4.1-3.1 5l-.8.3.1-.8c.2-2.1-.6-4.1-2.1-5.3 2.4-.5 4.5-.1 5.9.8z" fill="#FFD1C5"/>
  </g>
</svg>
